<?xml version="1.0" encoding="utf-8"?>
<!-- Generator: Adobe Illustrator 28.0.0, SVG Export Plug-In . SVG Version: 6.00 Build 0)  -->
<svg version="1.1" id="Layer_1" xmlns="http://www.w3.org/2000/svg" xmlns:xlink="http://www.w3.org/1999/xlink" x="0px" y="0px"
	 viewBox="0 0 512 512" style="enable-background:new 0 0 512 512;" xml:space="preserve">
<style type="text/css">
	.st0{fill:#A6A6A6;}
	.st1{fill:#FFFFFF;}
	.st2{fill:url(#XMLID_00000026847586410826325240000006341941328107230866_);}
	.st3{fill:url(#XMLID_00000022556349448201040370000014947882800633954749_);}
	.st4{fill:#404040;}
	.st5{fill:#EA4335;}
	.st6{fill:#FBBC04;}
	.st7{fill:#4285F4;}
	.st8{fill:#34A853;}
</style>
<g id="XMLID_15_">
	<path id="XMLID_17_" d="M493.1,331.9H18.9C8.6,331.9,0,323.3,0,313V199.2c0-10.4,8.6-18.9,18.9-18.9h474.1
		c10.4,0,18.9,8.6,18.9,18.9V313C512,323.3,503.4,331.9,493.1,331.9"/>
	<path id="XMLID_23_" class="st0" d="M493.1,183.2c8.8,0,16,7.1,16,16V313c0,8.8-7.1,16-16,16H18.9c-8.8,0-16-7.1-16-16V199.2
		c0-8.8,7.1-16,16-16H493.1 M493.1,180.1H18.9C8.6,180.1,0,188.7,0,199.1v113.8c0,10.4,8.6,18.9,18.9,18.9h474.1
		c10.4,0,18.9-8.6,18.9-18.9V199.1C512,188.7,503.4,180.1,493.1,180.1z"/>
	<path id="XMLID_24_" class="st1" d="M179.8,219c0,3.2-1,5.8-2.8,7.6c-2.1,2.2-4.9,3.4-8.4,3.4c-3.2,0-6-1.1-8.4-3.4
		c-2.2-2.2-3.5-5.1-3.5-8.4s1.1-6.2,3.5-8.4c2.2-2.2,5.1-3.4,8.4-3.4c1.7,0,3.2,0.3,4.6,1c1.5,0.7,2.7,1.5,3.5,2.5l-2,2
		c-1.5-1.8-3.6-2.7-6.2-2.7c-2.4,0-4.5,0.8-6.2,2.5c-1.7,1.7-2.7,3.9-2.7,6.6s0.8,4.9,2.7,6.6c1.7,1.7,3.8,2.5,6.2,2.5
		c2.5,0,4.6-0.8,6.3-2.5c1.1-1.1,1.7-2.7,2-4.6h-8.3v-2.7h11.1C179.8,217.9,179.8,218.4,179.8,219z"/>
	<path id="XMLID_25_" class="st1" d="M179.8,219L179.8,219c-0.1,3.1-1.1,5.6-2.9,7.4l0,0l0,0c-2.1,2.2-4.9,3.4-8.3,3.4
		c-3.2,0-6-1.1-8.3-3.4c-2.2-2.2-3.4-5.1-3.4-8.4s1.1-6.2,3.4-8.4c2.2-2.2,5.1-3.4,8.3-3.4c1.5,0,3.1,0.3,4.6,1
		c1.4,0.6,2.7,1.4,3.5,2.5l0.1-0.1l-0.1-0.1l-2,2l0.1,0.1l0.1-0.1c-1.5-1.8-3.6-2.8-6.3-2.8c-2.4,0-4.5,0.8-6.3,2.5
		c-1.8,1.7-2.7,3.9-2.7,6.7c0,2.7,0.8,4.9,2.7,6.7c1.8,1.7,3.9,2.5,6.3,2.5c2.5,0,4.8-0.8,6.4-2.5c1.1-1.1,1.8-2.7,2-4.6v-0.1h-8.3
		v-2.4h10.9v-0.1h-0.1C179.7,217.9,179.7,218.4,179.8,219L179.8,219h0.1c0-0.6,0-1.1-0.1-1.7v-0.1h-11.2v2.9h8.4V220h-0.1
		c-0.1,2-0.8,3.5-1.8,4.5c-1.7,1.7-3.8,2.5-6.3,2.5c-2.4,0-4.4-0.8-6.2-2.5c-1.7-1.7-2.5-3.8-2.5-6.4c0-2.7,0.8-4.8,2.5-6.4
		c1.7-1.7,3.8-2.5,6.2-2.5c2.7,0,4.6,0.8,6.2,2.7l0.1,0.1l2.2-2.2l-0.1-0.1c-0.8-1.1-2.1-2-3.6-2.5c-1.5-0.7-3.1-1-4.8-1
		c-3.4,0-6.2,1.1-8.4,3.5c-2.4,2.2-3.5,5.2-3.5,8.6s1.1,6.3,3.5,8.6c2.4,2.2,5.2,3.5,8.4,3.5c3.5,0,6.3-1.1,8.4-3.4l-0.1-0.1
		l0.1,0.1C179.1,224.7,180,222.2,179.8,219L179.8,219L179.8,219z"/>
	<polygon id="XMLID_26_" class="st1" points="197.4,209.4 187,209.4 187,216.7 196.2,216.7 196.2,219.4 187,219.4 187,226.7 
		197.4,226.7 197.4,229.5 184,229.5 184,206.8 197.4,206.8 	"/>
	<polygon id="XMLID_27_" class="st1" points="197.4,209.4 197.4,209.3 186.8,209.3 186.8,216.9 196.1,216.9 196.1,219.2 
		186.8,219.2 186.8,226.8 197.2,226.8 197.2,229.4 184.2,229.4 184.2,206.9 197.2,206.9 197.2,209.4 197.4,209.4 197.4,209.3 
		197.4,209.4 197.5,209.4 197.5,206.6 183.9,206.6 183.9,229.6 197.5,229.6 197.5,226.5 187.1,226.5 187.1,219.5 196.4,219.5 
		196.4,216.6 187.1,216.6 187.1,209.6 197.5,209.6 197.5,209.4 	"/>
	<polygon id="XMLID_28_" class="st1" points="209.7,229.5 206.8,229.5 206.8,209.4 200.3,209.4 200.3,206.8 216,206.8 216,209.4 
		209.7,209.4 	"/>
	<polygon id="XMLID_29_" class="st1" points="209.7,229.5 209.7,229.4 206.9,229.4 206.9,209.3 200.4,209.3 200.4,206.9 
		215.9,206.9 215.9,209.3 209.6,209.3 209.6,229.5 209.7,229.5 209.7,229.4 209.7,229.5 209.9,229.5 209.9,209.6 216.2,209.6 
		216.2,206.6 200.2,206.6 200.2,209.6 206.6,209.6 206.6,229.6 209.9,229.6 209.9,229.5 	"/>
	<rect id="XMLID_30_" x="227.4" y="206.8" class="st1" width="2.9" height="22.7"/>
	<polygon id="XMLID_32_" class="st1" points="227.4,229.5 227.5,229.5 227.5,206.9 230.1,206.9 230.1,229.4 227.4,229.4 
		227.4,229.5 227.5,229.5 227.4,229.5 227.4,229.6 230.3,229.6 230.3,206.6 227.2,206.6 227.2,229.6 227.4,229.6 	"/>
	<polygon id="XMLID_33_" class="st1" points="243.2,229.5 240.3,229.5 240.3,209.4 234,209.4 234,206.8 249.6,206.8 249.6,209.4 
		243.2,209.4 	"/>
	<polygon id="XMLID_34_" class="st1" points="243.2,229.5 243.2,229.4 240.4,229.4 240.4,209.3 234.1,209.3 234.1,206.9 
		249.4,206.9 249.4,209.3 243.1,209.3 243.1,229.5 243.2,229.5 243.2,229.4 243.2,229.5 243.4,229.5 243.4,209.6 249.7,209.6 
		249.7,206.6 233.8,206.6 233.8,209.6 240.1,209.6 240.1,229.6 243.4,229.6 243.4,229.5 	"/>
	<path id="XMLID_40_" class="st1" d="M279.1,226.5c-2.2,2.2-5,3.5-8.3,3.5c-3.4,0-6.2-1.1-8.3-3.5c-2.2-2.2-3.4-5.1-3.4-8.4
		s1.1-6.2,3.4-8.4c2.2-2.2,5-3.5,8.3-3.5c3.4,0,6,1.1,8.3,3.5c2.2,2.2,3.4,5.1,3.4,8.4C282.5,221.4,281.4,224.2,279.1,226.5z
		 M264.7,224.6c1.7,1.7,3.8,2.5,6.2,2.5s4.5-0.8,6.2-2.5c1.7-1.7,2.5-3.9,2.5-6.6c0-2.7-0.8-4.8-2.5-6.6c-1.7-1.7-3.8-2.5-6.2-2.5
		s-4.5,0.8-6.2,2.5c-1.7,1.7-2.5,3.9-2.5,6.6C262.2,220.6,263,222.9,264.7,224.6z"/>
	<path id="XMLID_47_" class="st1" d="M279.1,226.5L279.1,226.5c-2.2,2.2-5,3.4-8.3,3.4s-6-1.1-8.3-3.4c-2.2-2.2-3.4-5.1-3.4-8.3
		s1.1-6,3.4-8.3c2.2-2.2,4.9-3.4,8.3-3.4c3.2,0,6,1.1,8.3,3.4c2.2,2.2,3.4,5.1,3.4,8.3C282.4,221.4,281.2,224.2,279.1,226.5
		L279.1,226.5L279.1,226.5c2.4-2.2,3.5-5.1,3.5-8.4s-1.1-6.2-3.4-8.6c-2.2-2.4-5-3.5-8.4-3.5s-6.2,1.1-8.4,3.5s-3.4,5.2-3.4,8.6
		s1.1,6.2,3.4,8.6c2.2,2.4,5,3.5,8.4,3.5C274.2,230.1,277,228.9,279.1,226.5L279.1,226.5z M264.7,224.6L264.7,224.6
		c1.5,1.8,3.6,2.7,6.2,2.7c2.5,0,4.6-0.8,6.3-2.7c1.7-1.7,2.5-3.9,2.5-6.6c0-2.7-0.8-4.9-2.5-6.6s-3.8-2.7-6.3-2.7s-4.6,0.8-6.3,2.7
		c-1.7,1.7-2.5,3.9-2.5,6.6C262,220.8,262.9,223,264.7,224.6L264.7,224.6L264.7,224.6c-1.5-1.8-2.4-3.9-2.4-6.6
		c0-2.7,0.8-4.8,2.5-6.4s3.6-2.5,6-2.5s4.5,0.8,6,2.5c1.7,1.7,2.5,3.8,2.5,6.4c0,2.7-0.8,4.8-2.5,6.4s-3.6,2.5-6,2.5
		C268.5,227,266.4,226.1,264.7,224.6L264.7,224.6z"/>
	<polygon id="XMLID_48_" class="st1" points="286.6,229.5 286.6,206.8 290.2,206.8 301.3,224.4 301.3,224.4 301.3,219.9 
		301.3,206.8 304.1,206.8 304.1,229.5 301.2,229.5 289.5,210.8 289.4,210.8 289.5,215.3 289.5,229.5 	"/>
	<polygon id="XMLID_49_" class="st1" points="286.6,229.5 286.7,229.5 286.7,206.9 290.1,206.9 301.2,224.6 301.3,224.6 
		301.5,224.6 301.5,219.9 301.5,206.9 304,206.9 304,229.4 301.2,229.4 289.7,210.7 289.4,210.7 289.2,210.7 289.4,215.3 
		289.4,229.4 286.6,229.4 286.6,229.5 286.7,229.5 286.6,229.5 286.6,229.6 289.7,229.6 289.7,215.3 289.5,210.8 289.4,210.8 
		289.4,211 289.5,211 301,229.6 304.2,229.6 304.2,206.6 301.2,206.6 301.2,219.9 301.2,224.4 301.3,224.4 301.3,224.3 301.3,224.3 
		290.2,206.6 286.4,206.6 286.4,229.6 286.6,229.6 	"/>
	<path id="XMLID_131_" class="st1" d="M258.4,262.6c-9,0-16.1,6.7-16.1,16.1c0,9.3,7.3,16.1,16.1,16.1c9,0,16.1-6.9,16.1-16.1
		C274.7,269.5,267.4,262.6,258.4,262.6z M258.4,288.5c-4.9,0-9.1-4.1-9.1-9.8s4.2-9.8,9.1-9.8c4.9,0,9.1,3.9,9.1,9.8
		C267.5,284.5,263.3,288.5,258.4,288.5z M223,262.6c-9,0-16.1,6.7-16.1,16.1c0,9.3,7.3,16.1,16.1,16.1c9,0,16.1-6.9,16.1-16.1
		C239.3,269.5,232,262.6,223,262.6z M223,288.5c-4.9,0-9.1-4.1-9.1-9.8s4.2-9.8,9.1-9.8s9.1,3.9,9.1,9.8
		C232.1,284.5,227.9,288.5,223,288.5z M181.1,267.6v6.9h16.4c-0.4,3.8-1.8,6.6-3.8,8.6c-2.4,2.4-6.2,5-12.6,5
		c-10.1,0-18-8.1-18-18.2s7.9-18.2,18-18.2c5.5,0,9.4,2.1,12.3,4.9l4.8-4.8c-4.1-3.9-9.5-6.9-17.1-6.9c-13.8,0-25.4,11.2-25.4,25.1
		c0,13.8,11.6,25.1,25.4,25.1c7.4,0,13.1-2.4,17.5-7c4.5-4.5,5.9-10.9,5.9-16c0-1.5-0.1-3.1-0.4-4.2h-23V267.6z M352.9,273
		c-1.4-3.6-5.5-10.2-13.8-10.2s-15.1,6.6-15.1,16.1c0,9,6.9,16.1,16,16.1c7.4,0,11.6-4.5,13.5-7.1l-5.5-3.6c-1.8,2.7-4.4,4.5-8,4.5
		s-6.2-1.7-7.9-4.9l21.6-9L352.9,273z M330.9,278.3c-0.1-6.2,4.8-9.4,8.4-9.4c2.8,0,5.2,1.4,6,3.4L330.9,278.3z M313.4,293.9h7.1
		v-47.4h-7.1V293.9z M301.7,266.2h-0.3c-1.5-2-4.6-3.6-8.6-3.6c-8,0-15.4,7.1-15.4,16.1s7.4,16.1,15.4,16.1c3.8,0,6.9-1.7,8.6-3.6
		h0.3v2.4c0,6.2-3.4,9.5-8.6,9.5c-4.4,0-7-3.1-8.1-5.8l-6.2,2.5c1.8,4.2,6.5,9.5,14.3,9.5c8.3,0,15.3-4.9,15.3-16.8v-28.9h-6.7
		L301.7,266.2L301.7,266.2z M293.6,288.5c-4.9,0-9-4.1-9-9.7c0-5.8,4.1-9.8,9-9.8c4.8,0,8.6,4.2,8.6,9.8
		C302.3,284.5,298.5,288.5,293.6,288.5z M386.2,246.5h-17v47.4h7v-18h9.8c7.9,0,15.6-5.6,15.6-14.7
		C401.6,252.2,393.9,246.5,386.2,246.5z M386.3,269.3h-10.1v-16.3h10.1c5.3,0,8.3,4.3,8.3,8.1C394.6,265,391.6,269.3,386.3,269.3z
		 M430.1,262.6c-5.2,0-10.4,2.2-12.6,7.3l6.3,2.7c1.4-2.7,3.8-3.5,6.5-3.5c3.6,0,7.4,2.2,7.4,6v0.4c-1.3-0.7-4.1-1.8-7.4-1.8
		c-6.7,0-13.6,3.8-13.6,10.7c0,6.3,5.6,10.4,11.8,10.4c4.8,0,7.4-2.1,9-4.6h0.3v3.6h6.9v-18.2C444.4,267.2,438.1,262.6,430.1,262.6z
		 M429.2,288.5c-2.4,0-5.6-1.1-5.6-4.1c0-3.6,4.1-5,7.4-5c3.1,0,4.6,0.7,6.5,1.5C437.1,285.5,433.3,288.5,429.2,288.5z M469.4,263.6
		l-8.1,20.6h-0.3l-8.4-20.6h-7.6l12.6,28.8l-7.1,16h7.4l19.5-44.8H469.4L469.4,263.6z M405.5,293.9h7v-47.4h-7V293.9z"/>
	<path id="XMLID_159_" d="M39.8,303.5L39.8,303.5L39.8,303.5L39.8,303.5 M47.4,303.5c-1.3,0.7-2.5,1.1-3.7,1.3
		C45,304.7,46.2,304.2,47.4,303.5 M39.6,303.3L39.6,303.3L39.6,303.3L39.6,303.3"/>
	<path id="XMLID_161_" d="M37.9,297.9L37.9,297.9c0,2.4,0.7,4.2,1.8,5.3l0,0l0,0l0,0C38.4,302.1,37.9,300.3,37.9,297.9"/>
	
		<linearGradient id="XMLID_00000132085353267548400430000000979322200817402796_" gradientUnits="userSpaceOnUse" x1="-996.9973" y1="675.2007" x2="-995.5945" y2="675.2007" gradientTransform="matrix(-61.5299 61.5299 -61.5299 -61.5299 -19713.9746 103146.875)">
		<stop  offset="0" style="stop-color:#E0333C"/>
		<stop  offset="1" style="stop-color:#AB0F56"/>
	</linearGradient>
	<polyline id="XMLID_163_" style="fill:url(#XMLID_00000132085353267548400430000000979322200817402796_);" points="39.8,303 
		39.6,303.3 39.6,303.3 39.8,303 39.8,303 	"/>
	<path id="XMLID_164_" d="M125.4,256L125.4,256c0,0.7-0.1,1.5-0.6,2.2C125.3,257.5,125.4,256.7,125.4,256"/>
	
		<linearGradient id="XMLID_00000042705753291098703880000001939695479943904938_" gradientUnits="userSpaceOnUse" x1="-94.6849" y1="271.85" x2="-93.2822" y2="271.85" gradientTransform="matrix(-9.999997e-05 9.999997e-05 -9.999997e-05 -9.999997e-05 -850.3271 57.4647)">
		<stop  offset="0" style="stop-color:#E0333C"/>
		<stop  offset="1" style="stop-color:#AB0F56"/>
	</linearGradient>
	<polyline id="XMLID_166_" style="fill:url(#XMLID_00000042705753291098703880000001939695479943904938_);" points="102.5,271.7 
		102.5,271.7 102.8,272 102.5,271.7 	"/>
	<path id="XMLID_171_" class="st4" d="M102.8,240L102.8,240L102.8,240l18.5,10.5c2.7,1.5,3.9,3.5,3.9,5.5l0,0c0-2-1.3-3.9-3.9-5.5
		L102.8,240 M37.9,213.4L37.9,213.4L37.9,213.4 M37.9,213.4L37.9,213.4L37.9,213.4 M43.2,207.2c-3,0-5,2.2-5.3,6.2
		c0.1-2,0.7-3.5,1.7-4.6l0.3-0.3l0,0C40.7,207.6,41.9,207.2,43.2,207.2"/>
	<g>
		<path class="st5" d="M78.4,253.9L38.2,296c1.6,5.8,7.7,9.2,13.5,7.5c0.9-0.2,1.7-0.6,2.5-1.1l45.2-25.8L78.4,253.9z"/>
		<path class="st6" d="M119.1,246.8l-19.6-11.2l-22,19.3l22.1,21.8l19.4-11.1c5.2-2.7,7.2-9.1,4.5-14.4
			C122.5,249.3,120.9,247.8,119.1,246.8L119.1,246.8z"/>
		<path class="st7" d="M38.2,216.1c-0.2,0.9-0.4,1.8-0.4,2.8v74.4c0,0.9,0.1,1.9,0.4,2.8l41.6-41L38.2,216.1z"/>
		<path class="st8" d="M78.7,256.1l20.8-20.5l-45.2-25.9c-1.7-1-3.6-1.5-5.6-1.5c-4.9,0-9.2,3.2-10.5,7.9L78.7,256.1z"/>
	</g>
</g>
</svg>
